<svg width="241" height="232" viewBox="0 0 241 232" fill="none" xmlns="http://www.w3.org/2000/svg">
<mask id="path-1-inside-1_180_80" fill="white">
<path d="M180.896 61.2815L202.521 81.6759L143.625 137.22L122 116.826L180.896 61.2815Z"/>
</mask>
<path d="M180.896 61.2815L202.521 81.6759L143.625 137.22L122 116.826L180.896 61.2815Z" fill="#FAE013"/>
<path d="M197.429 76.8731L138.533 132.417L148.718 142.023L207.614 86.4786L197.429 76.8731ZM127.093 121.628L185.989 66.0842L175.803 56.4788L116.908 112.023L127.093 121.628Z" fill="black" mask="url(#path-1-inside-1_180_80)"/>
<mask id="path-3-inside-2_180_80" fill="white">
<path d="M122 116.899L143.625 96.5048L207.672 156.906L186.047 177.301L122 116.899Z"/>
</mask>
<path d="M122 116.899L143.625 96.5048L207.672 156.906L186.047 177.301L122 116.899Z" fill="#FAE013"/>
<path d="M138.533 101.308L202.579 161.709L212.764 152.104L148.718 91.7021L138.533 101.308ZM191.139 172.498L127.093 112.096L116.907 121.702L180.954 182.103L191.139 172.498Z" fill="black" mask="url(#path-3-inside-2_180_80)"/>
<mask id="path-5-inside-3_180_80" fill="white">
<path fill-rule="evenodd" clip-rule="evenodd" d="M118.53 232C186.168 232 241 180.065 241 116C241 51.9485 186.191 0.0218629 118.573 -2.50421e-08L118.487 -2.13072e-08C118.325 6.1021e-05 118.162 0.00041198 118 0.00106812L118 231.999C118.177 232 118.353 232 118.53 232ZM150.25 170.699C182.144 170.699 208 146.21 208 116C208 85.7905 182.144 61.3008 150.25 61.3008C150.167 61.3008 150.083 61.301 150 61.3013L150 170.699C150.083 170.699 150.167 170.699 150.25 170.699Z"/>
</mask>
<path fill-rule="evenodd" clip-rule="evenodd" d="M118.53 232C186.168 232 241 180.065 241 116C241 51.9485 186.191 0.0218629 118.573 -2.50421e-08L118.487 -2.13072e-08C118.325 6.1021e-05 118.162 0.00041198 118 0.00106812L118 231.999C118.177 232 118.353 232 118.53 232ZM150.25 170.699C182.144 170.699 208 146.21 208 116C208 85.7905 182.144 61.3008 150.25 61.3008C150.167 61.3008 150.083 61.301 150 61.3013L150 170.699C150.083 170.699 150.167 170.699 150.25 170.699Z" fill="#FAE013"/>
<path d="M118.573 -2.50421e-08L118.575 -7L118.573 -7L118.573 -2.50421e-08ZM118.487 -2.13072e-08L118.487 -7L118.485 -7L118.487 -2.13072e-08ZM118 0.00106812L117.972 -6.99889L111 -6.97089L111 0.00106842L118 0.00106812ZM118 231.999L111 231.999L111 238.971L117.972 238.999L118 231.999ZM150.25 170.699L150.25 163.699L150.25 170.699ZM150.25 61.3008L150.25 54.3008L150.25 61.3008ZM150 61.3013L149.972 54.3014L143 54.3294L143 61.3013L150 61.3013ZM150 170.699L143 170.699L143 177.671L149.972 177.699L150 170.699ZM234 116C234 175.846 182.665 225 118.53 225L118.53 239C189.672 239 248 184.284 248 116L234 116ZM118.571 7C182.687 7.02073 234 56.1667 234 116L248 116C248 47.7303 189.696 -6.97699 118.575 -7L118.571 7ZM118.487 7L118.573 7L118.573 -7L118.487 -7L118.487 7ZM118.028 7.00101C118.182 7.0004 118.336 7.00006 118.49 7L118.485 -7C118.314 -6.99994 118.143 -6.99957 117.972 -6.99889L118.028 7.00101ZM125 231.999L125 0.00106781L111 0.00106842L111 231.999L125 231.999ZM118.53 225C118.363 225 118.196 225 118.028 224.999L117.972 238.999C118.158 239 118.344 239 118.53 239L118.53 225ZM201 116C201 141.99 178.641 163.699 150.25 163.699L150.25 177.699C185.648 177.699 215 150.429 215 116L201 116ZM150.25 68.3008C178.641 68.3008 201 90.0096 201 116L215 116C215 81.5714 185.648 54.3008 150.25 54.3008L150.25 68.3008ZM150.028 68.3013C150.102 68.301 150.176 68.3008 150.25 68.3008L150.25 54.3008C150.157 54.3008 150.065 54.301 149.972 54.3014L150.028 68.3013ZM157 170.699L157 61.3013L143 61.3013L143 170.699L157 170.699ZM150.25 163.699C150.176 163.699 150.102 163.699 150.028 163.699L149.972 177.699C150.064 177.699 150.157 177.699 150.25 177.699L150.25 163.699Z" fill="black" mask="url(#path-5-inside-3_180_80)"/>
<path d="M149.996 118.706L149.992 99.7428L162.806 104.089L149.996 118.706Z" fill="#FAE013"/>
<path d="M153.283 118.825L152.539 99.3878L167.826 105.034L153.283 118.825Z" fill="#FAE013"/>
<path d="M131 116.944L150.5 99.3837L150.5 134.503L131 116.944Z" fill="#FAE013"/>
<mask id="path-10-inside-4_180_80" fill="white">
<path fill-rule="evenodd" clip-rule="evenodd" d="M107 232L107 191.652C68.4603 191.652 37.2177 157.782 37.2177 116C37.2177 74.2187 68.4603 40.3482 107 40.348L107 -4.67712e-06C47.9055 -2.09402e-06 -7.87089e-06 51.935 -5.07052e-06 116C-2.27015e-06 180.065 47.9055 232 107 232Z"/>
</mask>
<path fill-rule="evenodd" clip-rule="evenodd" d="M107 232L107 191.652C68.4603 191.652 37.2177 157.782 37.2177 116C37.2177 74.2187 68.4603 40.3482 107 40.348L107 -4.67712e-06C47.9055 -2.09402e-06 -7.87089e-06 51.935 -5.07052e-06 116C-2.27015e-06 180.065 47.9055 232 107 232Z" fill="#FAE013"/>
<path d="M107 232L107 239L114 239L114 232L107 232ZM107 191.652L114 191.652L114 184.652L107 184.652L107 191.652ZM107 40.348L107 47.348L114 47.348L114 40.348L107 40.348ZM107 -4.67712e-06L114 -4.9831e-06L114 -7L107 -7L107 -4.67712e-06ZM114 232L114 191.652L100 191.652L100 232L114 232ZM30.2177 116C30.2177 161.105 64.0727 198.652 107 198.652L107 184.652C72.8478 184.652 44.2177 154.459 44.2177 116L30.2177 116ZM107 33.348C64.0727 33.3482 30.2177 70.8958 30.2177 116L44.2177 116C44.2177 77.5417 72.8478 47.3482 107 47.348L107 33.348ZM114 40.348L114 -4.9831e-06L100 -4.37114e-06L100 40.348L114 40.348ZM107 -7C43.518 -7 -7.00001 48.612 -7.00001 116L6.99999 116C6.99999 55.2579 52.2931 7 107 7L107 -7ZM-7.00001 116C-7 183.388 43.518 239 107 239L107 225C52.2931 225 7 176.742 6.99999 116L-7.00001 116Z" fill="black" mask="url(#path-10-inside-4_180_80)"/>
</svg>
